<svg id="_4781833_filter_filters_funnel_list_navigation_icon" data-name="4781833_filter_filters_funnel_list_navigation_icon" xmlns="http://www.w3.org/2000/svg" width="32" height="32" viewBox="0 0 32 32">
  <g id="Layer_2" data-name="Layer 2">
    <path id="Tracé_10" data-name="Tracé 10" d="M28,9H11a1,1,0,0,1,0-2H28a1,1,0,0,1,0,2Z" fill="#462888"/>
    <path id="Tracé_11" data-name="Tracé 11" d="M7,9H4A1,1,0,0,1,4,7H7A1,1,0,0,1,7,9Z" fill="#462888"/>
    <path id="Tracé_12" data-name="Tracé 12" d="M21,17H4a1,1,0,0,1,0-2H21a1,1,0,0,1,0,2Z" fill="#462888"/>
    <path id="Tracé_13" data-name="Tracé 13" d="M11,25H4a1,1,0,0,1,0-2h7a1,1,0,0,1,0,2Z" fill="#462888"/>
    <path id="Tracé_14" data-name="Tracé 14" d="M9,11a3,3,0,1,1,3-3A3,3,0,0,1,9,11ZM9,7a1,1,0,1,0,1,1A1,1,0,0,0,9,7Z" fill="#462888"/>
    <path id="Tracé_15" data-name="Tracé 15" d="M23,19a3,3,0,1,1,3-3A3,3,0,0,1,23,19Zm0-4a1,1,0,1,0,1,1A1,1,0,0,0,23,15Z" fill="#462888"/>
    <path id="Tracé_16" data-name="Tracé 16" d="M13,27a3,3,0,1,1,3-3A3,3,0,0,1,13,27Zm0-4a1,1,0,1,0,1,1A1,1,0,0,0,13,23Z" fill="#462888"/>
    <path id="Tracé_17" data-name="Tracé 17" d="M28,17H25a1,1,0,0,1,0-2h3a1,1,0,0,1,0,2Z" fill="#462888"/>
    <path id="Tracé_18" data-name="Tracé 18" d="M28,25H15a1,1,0,0,1,0-2H28a1,1,0,0,1,0,2Z" fill="#462888"/>
  </g>
  <g id="frame">
    <rect id="Rectangle_28" data-name="Rectangle 28" width="32" height="32" fill="none"/>
  </g>
</svg>
